# xmcd
#
# Track frame offsets: 
#        150
#        5533
#        9388
#        13403
#        34215
#        41100
#        45600
#        48778
#        54445
#        62148
#        73533
#        81005
#        87540
#        96053
#        107890
#        116758
#        123725
#        135043
#        147370
#        154925
#        167170
#        177525
#        184075
#        194658
#        202728
#        211305
#        219365
#        229935
#        237393
#        246725
#        254805
#        262340
#        272993
#        283075
#        294718
#        305588
#
# Disc length: 4165 seconds
#
# Revision: 0
# Processed by: cddbd v1.5.1PL0 Copyright (c) Steve Scherf et al.
# Submitted via: ExactAudioCopy v0.95b1
#
DISCID=35104324
DTITLE=Various Artist - Volksmusik im Chiemgau
DYEAR=1994
DGENRE=Country
TTITLE0="Tauet Himmel" (Holler/Huber)
TTITLE1=Osterhallejuja aus Schnaitsee
TTITLE2=Ländler für Klavier
TTITLE3="Als Jüngling schlug mir hoch ..."
TTITLE4='s Dienal aus "Alpenrosen"
TTITLE5=Gitarrenlandler von Ignaz Lachner
TTITLE6="Es solle dich erfreuen"
TTITLE7=Landler aus Ruhpolding um 1850
TTITLE8=Schottisch für Harmoniemusik
TTITLE9="Und des oa Bergl auf" 1860
TTITLE10=Schotte aus Grassau um 1880
TTITLE11=Hirtenleid aus Traunstein
TTITLE12=Mazurka, Prien um 1900
TTITLE13=Halbwalzer, Prien um 1900
TTITLE14=Landler für Concertina
TTITLE15=Polka für Zither, Trostberg
TTITLE16="Juche frisch auf" Slg. Schmucker
TTITLE17="O du schöne, süaße Nachtigall" 1932
TTITLE18="Du schlauer Kuckuck", Aschauerinnen
TTITLE19=Ehestreit, Gschoßmann-Fanderl
TTITLE20="Annamirl", Bergener Volksl.-Sänger
TTITLE21=Landler, Blaskapelle Übersee
TTITLE22="Bei da Lindn", Riederinger Sänger
TTITLE23="Auf da Gwahn", Fanderl Trio 1951
TTITLE24="Lustig ist das Köhlerleben"
TTITLE25=Kaufmann-Polka, Inzeller Tanzlmusi
TTITLE26=D'Hirba, Loni und Martl Meier
TTITLE27=Gehpolka, Gauschrammeln
TTITLE28="Es gibt koa schönre...", Falkenstoana
TTITLE29="Büabei bist harb ...", Bojern-Dirndl
TTITLE30=Reihnländer, Rottauer Tanzlmusik
TTITLE31="J Buam, seids lusti ...", Traunsteiner
TTITLE32="Lobet den Herren", Walchschmied
TTITLE33=Klöpfellied aus Pittenhart
TTITLE34=Kirtaglandler für Bandoneon
TTITLE35=De Astern, Siebenbürger Sachsen
EXTD=Herausgegeben vom Volksmusikarchiv des Bezirks Oberbayern
EXTT0=
EXTT1=
EXTT2=
EXTT3=
EXTT4=
EXTT5=
EXTT6=
EXTT7=
EXTT8=
EXTT9=
EXTT10=
EXTT11=
EXTT12=
EXTT13=
EXTT14=
EXTT15=
EXTT16=
EXTT17=
EXTT18=
EXTT19=
EXTT20=
EXTT21=
EXTT22=
EXTT23=
EXTT24=
EXTT25=
EXTT26=
EXTT27=
EXTT28=
EXTT29=
EXTT30=
EXTT31=
EXTT32=
EXTT33=
EXTT34=
EXTT35=
PLAYORDER=
